<svg version="1.1" xmlns="http://www.w3.org/2000/svg" xmlns:xlink="http://www.w3.org/1999/xlink" width="1308" height="834"><defs><clipPath id="KdNduuuzeMdn"><path fill="none" stroke="none" d=" M 0 0 L 1308 0 L 1308 834 L 0 834 L 0 0 Z"/></clipPath></defs><g transform="scale(1,1)" clip-path="url(#KdNduuuzeMdn)"><g><rect fill="rgb(255,255,255)" stroke="none" x="0" y="0" width="1308" height="834" fill-opacity="1"/><path fill="none" stroke="rgb(192,192,192)" paint-order="fill stroke markers" d=" M 66.5 0.5 L 66.5 834.5 M 66.5 0.5 L 66.5 834.5 M 136.5 0.5 L 136.5 834.5 M 206.5 0.5 L 206.5 834.5 M 276.5 0.5 L 276.5 834.5 M 415.5 0.5 L 415.5 834.5 M 485.5 0.5 L 485.5 834.5 M 555.5 0.5 L 555.5 834.5 M 625.5 0.5 L 625.5 834.5 M 695.5 0.5 L 695.5 834.5 M 764.5 0.5 L 764.5 834.5 M 834.5 0.5 L 834.5 834.5 M 904.5 0.5 L 904.5 834.5 M 974.5 0.5 L 974.5 834.5 M 1044.5 0.5 L 1044.5 834.5 M 1114.5 0.5 L 1114.5 834.5 M 1184.5 0.5 L 1184.5 834.5 M 1253.5 0.5 L 1253.5 834.5" stroke-opacity="1" stroke-linecap="round" stroke-linejoin="round" stroke-miterlimit="10"/><path fill="none" stroke="rgb(192,192,192)" paint-order="fill stroke markers" d=" M 10.5 0.5 L 10.5 834.5 M 24.5 0.5 L 24.5 834.5 M 38.5 0.5 L 38.5 834.5 M 52.5 0.5 L 52.5 834.5 M 80.5 0.5 L 80.5 834.5 M 94.5 0.5 L 94.5 834.5 M 108.5 0.5 L 108.5 834.5 M 122.5 0.5 L 122.5 834.5 M 150.5 0.5 L 150.5 834.5 M 164.5 0.5 L 164.5 834.5 M 178.5 0.5 L 178.5 834.5 M 192.5 0.5 L 192.5 834.5 M 220.5 0.5 L 220.5 834.5 M 234.5 0.5 L 234.5 834.5 M 248.5 0.5 L 248.5 834.5 M 262.5 0.5 L 262.5 834.5 M 290.5 0.5 L 290.5 834.5 M 304.5 0.5 L 304.5 834.5 M 318.5 0.5 L 318.5 834.5 M 332.5 0.5 L 332.5 834.5 M 359.5 0.5 L 359.5 834.5 M 373.5 0.5 L 373.5 834.5 M 387.5 0.5 L 387.5 834.5 M 401.5 0.5 L 401.5 834.5 M 429.5 0.5 L 429.5 834.5 M 443.5 0.5 L 443.5 834.5 M 457.5 0.5 L 457.5 834.5 M 471.5 0.5 L 471.5 834.5 M 499.5 0.5 L 499.5 834.5 M 513.5 0.5 L 513.5 834.5 M 527.5 0.5 L 527.5 834.5 M 541.5 0.5 L 541.5 834.5 M 569.5 0.5 L 569.5 834.5 M 583.5 0.5 L 583.5 834.5 M 597.5 0.5 L 597.5 834.5 M 611.5 0.5 L 611.5 834.5 M 639.5 0.5 L 639.5 834.5 M 653.5 0.5 L 653.5 834.5 M 667.5 0.5 L 667.5 834.5 M 681.5 0.5 L 681.5 834.5 M 709.5 0.5 L 709.5 834.5 M 723.5 0.5 L 723.5 834.5 M 737.5 0.5 L 737.5 834.5 M 751.5 0.5 L 751.5 834.5 M 778.5 0.5 L 778.5 834.5 M 792.5 0.5 L 792.5 834.5 M 806.5 0.5 L 806.5 834.5 M 820.5 0.5 L 820.5 834.5 M 848.5 0.5 L 848.5 834.5 M 862.5 0.5 L 862.5 834.5 M 876.5 0.5 L 876.5 834.5 M 890.5 0.5 L 890.5 834.5 M 918.5 0.5 L 918.5 834.5 M 932.5 0.5 L 932.5 834.5 M 946.5 0.5 L 946.5 834.5 M 960.5 0.5 L 960.5 834.5 M 988.5 0.5 L 988.5 834.5 M 1002.5 0.5 L 1002.5 834.5 M 1016.5 0.5 L 1016.5 834.5 M 1030.5 0.5 L 1030.5 834.5 M 1058.5 0.5 L 1058.5 834.5 M 1072.5 0.5 L 1072.5 834.5 M 1086.5 0.5 L 1086.5 834.5 M 1100.5 0.5 L 1100.5 834.5 M 1128.5 0.5 L 1128.5 834.5 M 1142.5 0.5 L 1142.5 834.5 M 1156.5 0.5 L 1156.5 834.5 M 1170.5 0.5 L 1170.5 834.5 M 1197.5 0.5 L 1197.5 834.5 M 1211.5 0.5 L 1211.5 834.5 M 1225.5 0.5 L 1225.5 834.5 M 1239.5 0.5 L 1239.5 834.5 M 1267.5 0.5 L 1267.5 834.5 M 1281.5 0.5 L 1281.5 834.5 M 1295.5 0.5 L 1295.5 834.5" stroke-opacity="0.23529411764705882" stroke-linecap="round" stroke-linejoin="round" stroke-miterlimit="10"/><path fill="none" stroke="rgb(192,192,192)" paint-order="fill stroke markers" d=" M 0.5 38.5 L 1308.5 38.5 M 0.5 38.5 L 1308.5 38.5 M 0.5 107.5 L 1308.5 107.5 M 0.5 177.5 L 1308.5 177.5 M 0.5 247.5 L 1308.5 247.5 M 0.5 317.5 L 1308.5 317.5 M 0.5 387.5 L 1308.5 387.5 M 0.5 457.5 L 1308.5 457.5 M 0.5 526.5 L 1308.5 526.5 M 0.5 666.5 L 1308.5 666.5 M 0.5 736.5 L 1308.5 736.5 M 0.5 806.5 L 1308.5 806.5" stroke-opacity="1" stroke-linecap="round" stroke-linejoin="round" stroke-miterlimit="10"/><path fill="none" stroke="rgb(192,192,192)" paint-order="fill stroke markers" d=" M 0.5 10.5 L 1308.5 10.5 M 0.5 10.5 L 1308.5 10.5 M 0.5 24.5 L 1308.5 24.5 M 0.5 52.5 L 1308.5 52.5 M 0.5 65.5 L 1308.5 65.5 M 0.5 79.5 L 1308.5 79.5 M 0.5 93.5 L 1308.5 93.5 M 0.5 121.5 L 1308.5 121.5 M 0.5 135.5 L 1308.5 135.5 M 0.5 149.5 L 1308.5 149.5 M 0.5 163.5 L 1308.5 163.5 M 0.5 191.5 L 1308.5 191.5 M 0.5 205.5 L 1308.5 205.5 M 0.5 219.5 L 1308.5 219.5 M 0.5 233.5 L 1308.5 233.5 M 0.5 261.5 L 1308.5 261.5 M 0.5 275.5 L 1308.5 275.5 M 0.5 289.5 L 1308.5 289.5 M 0.5 303.5 L 1308.5 303.5 M 0.5 331.5 L 1308.5 331.5 M 0.5 345.5 L 1308.5 345.5 M 0.5 359.5 L 1308.5 359.5 M 0.5 373.5 L 1308.5 373.5 M 0.5 401.5 L 1308.5 401.5 M 0.5 415.5 L 1308.5 415.5 M 0.5 429.5 L 1308.5 429.5 M 0.5 443.5 L 1308.5 443.5 M 0.5 471.5 L 1308.5 471.5 M 0.5 484.5 L 1308.5 484.5 M 0.5 498.5 L 1308.5 498.5 M 0.5 512.5 L 1308.5 512.5 M 0.5 540.5 L 1308.5 540.5 M 0.5 554.5 L 1308.5 554.5 M 0.5 568.5 L 1308.5 568.5 M 0.5 582.5 L 1308.5 582.5 M 0.5 610.5 L 1308.5 610.5 M 0.5 624.5 L 1308.5 624.5 M 0.5 638.5 L 1308.5 638.5 M 0.5 652.5 L 1308.5 652.5 M 0.5 680.5 L 1308.5 680.5 M 0.5 694.5 L 1308.5 694.5 M 0.5 708.5 L 1308.5 708.5 M 0.5 722.5 L 1308.5 722.5 M 0.5 750.5 L 1308.5 750.5 M 0.5 764.5 L 1308.5 764.5 M 0.5 778.5 L 1308.5 778.5 M 0.5 792.5 L 1308.5 792.5 M 0.5 820.5 L 1308.5 820.5" stroke-opacity="0.23529411764705882" stroke-linecap="round" stroke-linejoin="round" stroke-miterlimit="10"/><path fill="none" stroke="rgb(37,37,37)" paint-order="fill stroke markers" d=" M 345.5 2.5 L 345.5 834.5" stroke-opacity="1" stroke-miterlimit="10"/><path fill="none" stroke="rgb(37,37,37)" paint-order="fill stroke markers" d=" M 345.5 1.5 L 341.5 5.5" stroke-opacity="1" stroke-miterlimit="10"/><path fill="none" stroke="rgb(37,37,37)" paint-order="fill stroke markers" d=" M 345.5 1.5 L 349.5 5.5" stroke-opacity="1" stroke-miterlimit="10"/><path fill="none" stroke="rgb(37,37,37)" paint-order="fill stroke markers" d=" M 0.5 596.5 L 1306.5 596.5" stroke-opacity="1" stroke-miterlimit="10"/><path fill="none" stroke="rgb(37,37,37)" paint-order="fill stroke markers" d=" M 1307.5 596.5 L 1303.5 592.5" stroke-opacity="1" stroke-miterlimit="10"/><path fill="none" stroke="rgb(37,37,37)" paint-order="fill stroke markers" d=" M 1307.5 596.5 L 1303.5 600.5" stroke-opacity="1" stroke-miterlimit="10"/><text fill="rgb(37,37,37)" stroke="none" font-family="geogebra-sans-serif, sans-serif" font-size="12px" font-style="normal" font-weight="normal" text-decoration="normal" x="61" y="612" text-anchor="start" dominant-baseline="alphabetic" fill-opacity="1">–2</text><text fill="rgb(37,37,37)" stroke="none" font-family="geogebra-sans-serif, sans-serif" font-size="12px" font-style="normal" font-weight="normal" text-decoration="normal" x="61" y="612" text-anchor="start" dominant-baseline="alphabetic" fill-opacity="1">–2</text><text fill="rgb(37,37,37)" stroke="none" font-family="geogebra-sans-serif, sans-serif" font-size="12px" font-style="normal" font-weight="normal" text-decoration="normal" x="125" y="612" text-anchor="start" dominant-baseline="alphabetic" fill-opacity="1">–1.5</text><text fill="rgb(37,37,37)" stroke="none" font-family="geogebra-sans-serif, sans-serif" font-size="12px" font-style="normal" font-weight="normal" text-decoration="normal" x="125" y="612" text-anchor="start" dominant-baseline="alphabetic" fill-opacity="1">–1.5</text><text fill="rgb(37,37,37)" stroke="none" font-family="geogebra-sans-serif, sans-serif" font-size="12px" font-style="normal" font-weight="normal" text-decoration="normal" x="201" y="612" text-anchor="start" dominant-baseline="alphabetic" fill-opacity="1">–1</text><text fill="rgb(37,37,37)" stroke="none" font-family="geogebra-sans-serif, sans-serif" font-size="12px" font-style="normal" font-weight="normal" text-decoration="normal" x="201" y="612" text-anchor="start" dominant-baseline="alphabetic" fill-opacity="1">–1</text><text fill="rgb(37,37,37)" stroke="none" font-family="geogebra-sans-serif, sans-serif" font-size="12px" font-style="normal" font-weight="normal" text-decoration="normal" x="265" y="612" text-anchor="start" dominant-baseline="alphabetic" fill-opacity="1">–0.5</text><text fill="rgb(37,37,37)" stroke="none" font-family="geogebra-sans-serif, sans-serif" font-size="12px" font-style="normal" font-weight="normal" text-decoration="normal" x="265" y="612" text-anchor="start" dominant-baseline="alphabetic" fill-opacity="1">–0.5</text><text fill="rgb(37,37,37)" stroke="none" font-family="geogebra-sans-serif, sans-serif" font-size="12px" font-style="normal" font-weight="normal" text-decoration="normal" x="407" y="612" text-anchor="start" dominant-baseline="alphabetic" fill-opacity="1">0.5</text><text fill="rgb(37,37,37)" stroke="none" font-family="geogebra-sans-serif, sans-serif" font-size="12px" font-style="normal" font-weight="normal" text-decoration="normal" x="407" y="612" text-anchor="start" dominant-baseline="alphabetic" fill-opacity="1">0.5</text><text fill="rgb(37,37,37)" stroke="none" font-family="geogebra-sans-serif, sans-serif" font-size="12px" font-style="normal" font-weight="normal" text-decoration="normal" x="483" y="612" text-anchor="start" dominant-baseline="alphabetic" fill-opacity="1">1</text><text fill="rgb(37,37,37)" stroke="none" font-family="geogebra-sans-serif, sans-serif" font-size="12px" font-style="normal" font-weight="normal" text-decoration="normal" x="483" y="612" text-anchor="start" dominant-baseline="alphabetic" fill-opacity="1">1</text><text fill="rgb(37,37,37)" stroke="none" font-family="geogebra-sans-serif, sans-serif" font-size="12px" font-style="normal" font-weight="normal" text-decoration="normal" x="547" y="612" text-anchor="start" dominant-baseline="alphabetic" fill-opacity="1">1.5</text><text fill="rgb(37,37,37)" stroke="none" font-family="geogebra-sans-serif, sans-serif" font-size="12px" font-style="normal" font-weight="normal" text-decoration="normal" x="547" y="612" text-anchor="start" dominant-baseline="alphabetic" fill-opacity="1">1.5</text><text fill="rgb(37,37,37)" stroke="none" font-family="geogebra-sans-serif, sans-serif" font-size="12px" font-style="normal" font-weight="normal" text-decoration="normal" x="623" y="612" text-anchor="start" dominant-baseline="alphabetic" fill-opacity="1">2</text><text fill="rgb(37,37,37)" stroke="none" font-family="geogebra-sans-serif, sans-serif" font-size="12px" font-style="normal" font-weight="normal" text-decoration="normal" x="623" y="612" text-anchor="start" dominant-baseline="alphabetic" fill-opacity="1">2</text><text fill="rgb(37,37,37)" stroke="none" font-family="geogebra-sans-serif, sans-serif" font-size="12px" font-style="normal" font-weight="normal" text-decoration="normal" x="687" y="612" text-anchor="start" dominant-baseline="alphabetic" fill-opacity="1">2.5</text><text fill="rgb(37,37,37)" stroke="none" font-family="geogebra-sans-serif, sans-serif" font-size="12px" font-style="normal" font-weight="normal" text-decoration="normal" x="687" y="612" text-anchor="start" dominant-baseline="alphabetic" fill-opacity="1">2.5</text><text fill="rgb(37,37,37)" stroke="none" font-family="geogebra-sans-serif, sans-serif" font-size="12px" font-style="normal" font-weight="normal" text-decoration="normal" x="762" y="612" text-anchor="start" dominant-baseline="alphabetic" fill-opacity="1">3</text><text fill="rgb(37,37,37)" stroke="none" font-family="geogebra-sans-serif, sans-serif" font-size="12px" font-style="normal" font-weight="normal" text-decoration="normal" x="762" y="612" text-anchor="start" dominant-baseline="alphabetic" fill-opacity="1">3</text><text fill="rgb(37,37,37)" stroke="none" font-family="geogebra-sans-serif, sans-serif" font-size="12px" font-style="normal" font-weight="normal" text-decoration="normal" x="826" y="612" text-anchor="start" dominant-baseline="alphabetic" fill-opacity="1">3.5</text><text fill="rgb(37,37,37)" stroke="none" font-family="geogebra-sans-serif, sans-serif" font-size="12px" font-style="normal" font-weight="normal" text-decoration="normal" x="826" y="612" text-anchor="start" dominant-baseline="alphabetic" fill-opacity="1">3.5</text><text fill="rgb(37,37,37)" stroke="none" font-family="geogebra-sans-serif, sans-serif" font-size="12px" font-style="normal" font-weight="normal" text-decoration="normal" x="902" y="612" text-anchor="start" dominant-baseline="alphabetic" fill-opacity="1">4</text><text fill="rgb(37,37,37)" stroke="none" font-family="geogebra-sans-serif, sans-serif" font-size="12px" font-style="normal" font-weight="normal" text-decoration="normal" x="902" y="612" text-anchor="start" dominant-baseline="alphabetic" fill-opacity="1">4</text><text fill="rgb(37,37,37)" stroke="none" font-family="geogebra-sans-serif, sans-serif" font-size="12px" font-style="normal" font-weight="normal" text-decoration="normal" x="966" y="612" text-anchor="start" dominant-baseline="alphabetic" fill-opacity="1">4.5</text><text fill="rgb(37,37,37)" stroke="none" font-family="geogebra-sans-serif, sans-serif" font-size="12px" font-style="normal" font-weight="normal" text-decoration="normal" x="966" y="612" text-anchor="start" dominant-baseline="alphabetic" fill-opacity="1">4.5</text><text fill="rgb(37,37,37)" stroke="none" font-family="geogebra-sans-serif, sans-serif" font-size="12px" font-style="normal" font-weight="normal" text-decoration="normal" x="1042" y="612" text-anchor="start" dominant-baseline="alphabetic" fill-opacity="1">5</text><text fill="rgb(37,37,37)" stroke="none" font-family="geogebra-sans-serif, sans-serif" font-size="12px" font-style="normal" font-weight="normal" text-decoration="normal" x="1042" y="612" text-anchor="start" dominant-baseline="alphabetic" fill-opacity="1">5</text><text fill="rgb(37,37,37)" stroke="none" font-family="geogebra-sans-serif, sans-serif" font-size="12px" font-style="normal" font-weight="normal" text-decoration="normal" x="1106" y="612" text-anchor="start" dominant-baseline="alphabetic" fill-opacity="1">5.5</text><text fill="rgb(37,37,37)" stroke="none" font-family="geogebra-sans-serif, sans-serif" font-size="12px" font-style="normal" font-weight="normal" text-decoration="normal" x="1106" y="612" text-anchor="start" dominant-baseline="alphabetic" fill-opacity="1">5.5</text><text fill="rgb(37,37,37)" stroke="none" font-family="geogebra-sans-serif, sans-serif" font-size="12px" font-style="normal" font-weight="normal" text-decoration="normal" x="1182" y="612" text-anchor="start" dominant-baseline="alphabetic" fill-opacity="1">6</text><text fill="rgb(37,37,37)" stroke="none" font-family="geogebra-sans-serif, sans-serif" font-size="12px" font-style="normal" font-weight="normal" text-decoration="normal" x="1182" y="612" text-anchor="start" dominant-baseline="alphabetic" fill-opacity="1">6</text><text fill="rgb(37,37,37)" stroke="none" font-family="geogebra-sans-serif, sans-serif" font-size="12px" font-style="normal" font-weight="normal" text-decoration="normal" x="1245" y="612" text-anchor="start" dominant-baseline="alphabetic" fill-opacity="1">6.5</text><text fill="rgb(37,37,37)" stroke="none" font-family="geogebra-sans-serif, sans-serif" font-size="12px" font-style="normal" font-weight="normal" text-decoration="normal" x="1245" y="612" text-anchor="start" dominant-baseline="alphabetic" fill-opacity="1">6.5</text><text fill="rgb(37,37,37)" stroke="none" font-family="geogebra-sans-serif, sans-serif" font-size="12px" font-style="normal" font-weight="normal" text-decoration="normal" x="315" y="811" text-anchor="start" dominant-baseline="alphabetic" fill-opacity="1">–1.5</text><text fill="rgb(37,37,37)" stroke="none" font-family="geogebra-sans-serif, sans-serif" font-size="12px" font-style="normal" font-weight="normal" text-decoration="normal" x="315" y="811" text-anchor="start" dominant-baseline="alphabetic" fill-opacity="1">–1.5</text><text fill="rgb(37,37,37)" stroke="none" font-family="geogebra-sans-serif, sans-serif" font-size="12px" font-style="normal" font-weight="normal" text-decoration="normal" x="324" y="741" text-anchor="start" dominant-baseline="alphabetic" fill-opacity="1">–1</text><text fill="rgb(37,37,37)" stroke="none" font-family="geogebra-sans-serif, sans-serif" font-size="12px" font-style="normal" font-weight="normal" text-decoration="normal" x="324" y="741" text-anchor="start" dominant-baseline="alphabetic" fill-opacity="1">–1</text><text fill="rgb(37,37,37)" stroke="none" font-family="geogebra-sans-serif, sans-serif" font-size="12px" font-style="normal" font-weight="normal" text-decoration="normal" x="315" y="671" text-anchor="start" dominant-baseline="alphabetic" fill-opacity="1">–0.5</text><text fill="rgb(37,37,37)" stroke="none" font-family="geogebra-sans-serif, sans-serif" font-size="12px" font-style="normal" font-weight="normal" text-decoration="normal" x="315" y="671" text-anchor="start" dominant-baseline="alphabetic" fill-opacity="1">–0.5</text><text fill="rgb(37,37,37)" stroke="none" font-family="geogebra-sans-serif, sans-serif" font-size="12px" font-style="normal" font-weight="normal" text-decoration="normal" x="321" y="531" text-anchor="start" dominant-baseline="alphabetic" fill-opacity="1">0.5</text><text fill="rgb(37,37,37)" stroke="none" font-family="geogebra-sans-serif, sans-serif" font-size="12px" font-style="normal" font-weight="normal" text-decoration="normal" x="321" y="531" text-anchor="start" dominant-baseline="alphabetic" fill-opacity="1">0.5</text><text fill="rgb(37,37,37)" stroke="none" font-family="geogebra-sans-serif, sans-serif" font-size="12px" font-style="normal" font-weight="normal" text-decoration="normal" x="331" y="462" text-anchor="start" dominant-baseline="alphabetic" fill-opacity="1">1</text><text fill="rgb(37,37,37)" stroke="none" font-family="geogebra-sans-serif, sans-serif" font-size="12px" font-style="normal" font-weight="normal" text-decoration="normal" x="331" y="462" text-anchor="start" dominant-baseline="alphabetic" fill-opacity="1">1</text><text fill="rgb(37,37,37)" stroke="none" font-family="geogebra-sans-serif, sans-serif" font-size="12px" font-style="normal" font-weight="normal" text-decoration="normal" x="321" y="392" text-anchor="start" dominant-baseline="alphabetic" fill-opacity="1">1.5</text><text fill="rgb(37,37,37)" stroke="none" font-family="geogebra-sans-serif, sans-serif" font-size="12px" font-style="normal" font-weight="normal" text-decoration="normal" x="321" y="392" text-anchor="start" dominant-baseline="alphabetic" fill-opacity="1">1.5</text><text fill="rgb(37,37,37)" stroke="none" font-family="geogebra-sans-serif, sans-serif" font-size="12px" font-style="normal" font-weight="normal" text-decoration="normal" x="331" y="322" text-anchor="start" dominant-baseline="alphabetic" fill-opacity="1">2</text><text fill="rgb(37,37,37)" stroke="none" font-family="geogebra-sans-serif, sans-serif" font-size="12px" font-style="normal" font-weight="normal" text-decoration="normal" x="331" y="322" text-anchor="start" dominant-baseline="alphabetic" fill-opacity="1">2</text><text fill="rgb(37,37,37)" stroke="none" font-family="geogebra-sans-serif, sans-serif" font-size="12px" font-style="normal" font-weight="normal" text-decoration="normal" x="321" y="252" text-anchor="start" dominant-baseline="alphabetic" fill-opacity="1">2.5</text><text fill="rgb(37,37,37)" stroke="none" font-family="geogebra-sans-serif, sans-serif" font-size="12px" font-style="normal" font-weight="normal" text-decoration="normal" x="321" y="252" text-anchor="start" dominant-baseline="alphabetic" fill-opacity="1">2.5</text><text fill="rgb(37,37,37)" stroke="none" font-family="geogebra-sans-serif, sans-serif" font-size="12px" font-style="normal" font-weight="normal" text-decoration="normal" x="331" y="182" text-anchor="start" dominant-baseline="alphabetic" fill-opacity="1">3</text><text fill="rgb(37,37,37)" stroke="none" font-family="geogebra-sans-serif, sans-serif" font-size="12px" font-style="normal" font-weight="normal" text-decoration="normal" x="331" y="182" text-anchor="start" dominant-baseline="alphabetic" fill-opacity="1">3</text><text fill="rgb(37,37,37)" stroke="none" font-family="geogebra-sans-serif, sans-serif" font-size="12px" font-style="normal" font-weight="normal" text-decoration="normal" x="321" y="112" text-anchor="start" dominant-baseline="alphabetic" fill-opacity="1">3.5</text><text fill="rgb(37,37,37)" stroke="none" font-family="geogebra-sans-serif, sans-serif" font-size="12px" font-style="normal" font-weight="normal" text-decoration="normal" x="321" y="112" text-anchor="start" dominant-baseline="alphabetic" fill-opacity="1">3.5</text><text fill="rgb(37,37,37)" stroke="none" font-family="geogebra-sans-serif, sans-serif" font-size="12px" font-style="normal" font-weight="normal" text-decoration="normal" x="331" y="43" text-anchor="start" dominant-baseline="alphabetic" fill-opacity="1">4</text><text fill="rgb(37,37,37)" stroke="none" font-family="geogebra-sans-serif, sans-serif" font-size="12px" font-style="normal" font-weight="normal" text-decoration="normal" x="331" y="43" text-anchor="start" dominant-baseline="alphabetic" fill-opacity="1">4</text><text fill="rgb(37,37,37)" stroke="none" font-family="geogebra-sans-serif, sans-serif" font-size="12px" font-style="normal" font-weight="normal" text-decoration="normal" x="331" y="612" text-anchor="start" dominant-baseline="alphabetic" fill-opacity="1">0</text><text fill="rgb(37,37,37)" stroke="none" font-family="geogebra-sans-serif, sans-serif" font-size="12px" font-style="normal" font-weight="normal" text-decoration="normal" x="331" y="612" text-anchor="start" dominant-baseline="alphabetic" fill-opacity="1">0</text><path fill="rgb(21,101,192)" stroke="none" paint-order="stroke fill markers" fill-rule="evenodd" d=" M 345.98068325479466 177.71580099440303 L 345.98068325479466 596.7278612781312 L 625.3220567772801 596.7278612781312 L 625.3220567772801 177.71580099440303 Z" fill-opacity="0.09803921568627451"/><path fill="none" stroke="rgb(97,97,97)" paint-order="fill stroke markers" d=" M 672.4675266597118 387.2218311362671 C 672.4675266597118 514.5031674402653 569.2856167071473 617.68507739283 442.004280403149 617.68507739283 C 314.7229440991507 617.68507739283 211.54103414658618 514.5031674402653 211.54103414658618 387.2218311362671 C 211.54103414658618 259.94049483226877 314.7229440991507 156.7585848797043 442.004280403149 156.7585848797043 C 569.2856167071473 156.7585848797043 672.4675266597118 259.94049483226877 672.4675266597118 387.2218311362671 Z" stroke-opacity="0.8" stroke-linecap="round" stroke-linejoin="round" stroke-miterlimit="10" stroke-width="2.5"/><path fill="none" stroke="rgb(21,101,192)" paint-order="fill stroke markers" d=" M 345.98068325479466 177.71580099440303 L 345.98068325479466 596.7278612781312" stroke-opacity="0.8" stroke-linecap="round" stroke-linejoin="round" stroke-miterlimit="10" stroke-width="2.5"/><path fill="none" stroke="rgb(21,101,192)" paint-order="fill stroke markers" d=" M 345.98068325479466 596.7278612781312 L 625.3220567772801 596.7278612781312" stroke-opacity="0.8" stroke-linecap="round" stroke-linejoin="round" stroke-miterlimit="10" stroke-width="2.5"/><path fill="none" stroke="rgb(21,101,192)" paint-order="fill stroke markers" d=" M 625.3220567772801 596.7278612781312 L 625.3220567772801 177.71580099440303" stroke-opacity="0.8" stroke-linecap="round" stroke-linejoin="round" stroke-miterlimit="10" stroke-width="2.5"/><path fill="none" stroke="rgb(21,101,192)" paint-order="fill stroke markers" d=" M 625.3220567772801 177.71580099440303 L 345.98068325479466 177.71580099440303" stroke-opacity="0.8" stroke-linecap="round" stroke-linejoin="round" stroke-miterlimit="10" stroke-width="2.5"/><path fill="rgb(21,101,192)" stroke="none" paint-order="stroke fill markers" d=" M 350.98068325479466 177.71580099440303 C 350.98068325479466 180.477224743557 348.7421070039486 182.71580099440303 345.98068325479466 182.71580099440303 C 343.2192595056407 182.71580099440303 340.98068325479466 180.477224743557 340.98068325479466 177.71580099440303 C 340.98068325479466 174.95437724524905 343.2192595056407 172.71580099440303 345.98068325479466 172.71580099440303 C 348.7421070039486 172.71580099440303 350.98068325479466 174.95437724524905 350.98068325479466 177.71580099440303 Z" fill-opacity="1"/><path fill="none" stroke="rgb(0,0,0)" paint-order="fill stroke markers" d=" M 350.98068325479466 177.71580099440303 C 350.98068325479466 180.477224743557 348.7421070039486 182.71580099440303 345.98068325479466 182.71580099440303 C 343.2192595056407 182.71580099440303 340.98068325479466 180.477224743557 340.98068325479466 177.71580099440303 C 340.98068325479466 174.95437724524905 343.2192595056407 172.71580099440303 345.98068325479466 172.71580099440303 C 348.7421070039486 172.71580099440303 350.98068325479466 174.95437724524905 350.98068325479466 177.71580099440303 Z" stroke-opacity="1" stroke-linecap="round" stroke-linejoin="round" stroke-miterlimit="10"/><text fill="rgb(21,101,192)" stroke="none" font-family="geogebra-sans-serif, sans-serif" font-size="16px" font-style="normal" font-weight="normal" text-decoration="normal" x="350" y="168" text-anchor="start" dominant-baseline="alphabetic" fill-opacity="1">A</text><text fill="rgb(21,101,192)" stroke="none" font-family="geogebra-sans-serif, sans-serif" font-size="16px" font-style="normal" font-weight="normal" text-decoration="normal" x="350" y="168" text-anchor="start" dominant-baseline="alphabetic" fill-opacity="1">A</text><path fill="rgb(21,101,192)" stroke="none" paint-order="stroke fill markers" d=" M 350.98068325479466 596.7278612781312 C 350.98068325479466 599.4892850272852 348.7421070039486 601.7278612781312 345.98068325479466 601.7278612781312 C 343.2192595056407 601.7278612781312 340.98068325479466 599.4892850272852 340.98068325479466 596.7278612781312 C 340.98068325479466 593.9664375289772 343.2192595056407 591.7278612781312 345.98068325479466 591.7278612781312 C 348.7421070039486 591.7278612781312 350.98068325479466 593.9664375289772 350.98068325479466 596.7278612781312 Z" fill-opacity="1"/><path fill="none" stroke="rgb(0,0,0)" paint-order="fill stroke markers" d=" M 350.98068325479466 596.7278612781312 C 350.98068325479466 599.4892850272852 348.7421070039486 601.7278612781312 345.98068325479466 601.7278612781312 C 343.2192595056407 601.7278612781312 340.98068325479466 599.4892850272852 340.98068325479466 596.7278612781312 C 340.98068325479466 593.9664375289772 343.2192595056407 591.7278612781312 345.98068325479466 591.7278612781312 C 348.7421070039486 591.7278612781312 350.98068325479466 593.9664375289772 350.98068325479466 596.7278612781312 Z" stroke-opacity="1" stroke-linecap="round" stroke-linejoin="round" stroke-miterlimit="10"/><text fill="rgb(21,101,192)" stroke="none" font-family="geogebra-sans-serif, sans-serif" font-size="16px" font-style="normal" font-weight="normal" text-decoration="normal" x="350" y="587" text-anchor="start" dominant-baseline="alphabetic" fill-opacity="1">B</text><text fill="rgb(21,101,192)" stroke="none" font-family="geogebra-sans-serif, sans-serif" font-size="16px" font-style="normal" font-weight="normal" text-decoration="normal" x="350" y="587" text-anchor="start" dominant-baseline="alphabetic" fill-opacity="1">B</text><path fill="rgb(21,101,192)" stroke="none" paint-order="stroke fill markers" d=" M 630.3220567772801 247.55114437502442 C 630.3220567772801 250.3125681241784 628.0834805264341 252.55114437502442 625.3220567772801 252.55114437502442 C 622.5606330281261 252.55114437502442 620.3220567772801 250.3125681241784 620.3220567772801 247.55114437502442 C 620.3220567772801 244.78972062587044 622.5606330281261 242.55114437502442 625.3220567772801 242.55114437502442 C 628.0834805264341 242.55114437502442 630.3220567772801 244.78972062587044 630.3220567772801 247.55114437502442 Z" fill-opacity="1"/><path fill="none" stroke="rgb(0,0,0)" paint-order="fill stroke markers" d=" M 630.3220567772801 247.55114437502442 C 630.3220567772801 250.3125681241784 628.0834805264341 252.55114437502442 625.3220567772801 252.55114437502442 C 622.5606330281261 252.55114437502442 620.3220567772801 250.3125681241784 620.3220567772801 247.55114437502442 C 620.3220567772801 244.78972062587044 622.5606330281261 242.55114437502442 625.3220567772801 242.55114437502442 C 628.0834805264341 242.55114437502442 630.3220567772801 244.78972062587044 630.3220567772801 247.55114437502442 Z" stroke-opacity="1" stroke-linecap="round" stroke-linejoin="round" stroke-miterlimit="10"/><text fill="rgb(21,101,192)" stroke="none" font-family="geogebra-sans-serif, sans-serif" font-size="16px" font-style="normal" font-weight="normal" text-decoration="normal" x="629" y="238" text-anchor="start" dominant-baseline="alphabetic" fill-opacity="1">E</text><text fill="rgb(21,101,192)" stroke="none" font-family="geogebra-sans-serif, sans-serif" font-size="16px" font-style="normal" font-weight="normal" text-decoration="normal" x="629" y="238" text-anchor="start" dominant-baseline="alphabetic" fill-opacity="1">E</text><path fill="rgb(0,0,0)" stroke="none" paint-order="stroke fill markers" d=" M 446.004280403149 387.2218311362671 C 446.004280403149 389.43097013559026 444.21341940247214 391.2218311362671 442.004280403149 391.2218311362671 C 439.7951414038258 391.2218311362671 438.004280403149 389.43097013559026 438.004280403149 387.2218311362671 C 438.004280403149 385.01269213694394 439.7951414038258 383.2218311362671 442.004280403149 383.2218311362671 C 444.21341940247214 383.2218311362671 446.004280403149 385.01269213694394 446.004280403149 387.2218311362671 Z" fill-opacity="1"/><path fill="none" stroke="rgb(0,0,0)" paint-order="fill stroke markers" d=" M 446.004280403149 387.2218311362671 C 446.004280403149 389.43097013559026 444.21341940247214 391.2218311362671 442.004280403149 391.2218311362671 C 439.7951414038258 391.2218311362671 438.004280403149 389.43097013559026 438.004280403149 387.2218311362671 C 438.004280403149 385.01269213694394 439.7951414038258 383.2218311362671 442.004280403149 383.2218311362671 C 444.21341940247214 383.2218311362671 446.004280403149 385.01269213694394 446.004280403149 387.2218311362671 Z" stroke-opacity="1" stroke-linecap="round" stroke-linejoin="round" stroke-miterlimit="10"/><text fill="rgb(0,0,0)" stroke="none" font-family="geogebra-sans-serif, sans-serif" font-size="16px" font-style="normal" font-weight="normal" text-decoration="normal" x="446" y="379" text-anchor="start" dominant-baseline="alphabetic" fill-opacity="1">F</text><text fill="rgb(0,0,0)" stroke="none" font-family="geogebra-sans-serif, sans-serif" font-size="16px" font-style="normal" font-weight="normal" text-decoration="normal" x="446" y="379" text-anchor="start" dominant-baseline="alphabetic" fill-opacity="1">F</text><text fill="rgb(0,0,0)" stroke="none" font-family="geogebra-sans-serif, sans-serif" font-size="32px" font-style="normal" font-weight="normal" text-decoration="normal" x="47" y="246" text-anchor="start" dominant-baseline="alphabetic" fill-opacity="1">竖边长的长方形</text></g></g></svg>