<svg version="1.1" xmlns="http://www.w3.org/2000/svg" xmlns:xlink="http://www.w3.org/1999/xlink" width="1308" height="834"><defs><clipPath id="QTCkcZcdhkzr"><path fill="none" stroke="none" d=" M 0 0 L 1308 0 L 1308 834 L 0 834 L 0 0 Z"/></clipPath></defs><g transform="scale(1,1)" clip-path="url(#QTCkcZcdhkzr)"><g><rect fill="rgb(255,255,255)" stroke="none" x="0" y="0" width="1308" height="834" fill-opacity="1"/><path fill="rgb(21,101,192)" stroke="none" paint-order="stroke fill markers" fill-rule="evenodd" d=" M 340.05906559472123 467.0830531447942 L 340.05906559472123 274.0679192541354 L 533.07419948538 274.0679192541354 L 533.07419948538 467.0830531447942 Z" fill-opacity="0.09803921568627451"/><path fill="none" stroke="rgb(97,97,97)" paint-order="fill stroke markers" d=" M 1337.5632855189647 450.99845865390597 C 1337.5632855189647 726.5232636294986 1114.2062997878488 949.8802493606145 838.6814948122562 949.8802493606145 C 563.1566898366636 949.8802493606145 339.7997041055479 726.5232636294986 339.7997041055479 450.99845865390597 C 339.7997041055479 175.4736536783133 563.1566898366636 -47.88333205280247 838.6814948122562 -47.88333205280247 C 1114.2062997878488 -47.88333205280247 1337.5632855189647 175.4736536783133 1337.5632855189647 450.99845865390597 Z" stroke-opacity="0.8" stroke-linecap="round" stroke-linejoin="round" stroke-miterlimit="10" stroke-width="2.5"/><path fill="none" stroke="rgb(21,101,192)" paint-order="fill stroke markers" d=" M 340.05906559472123 467.0830531447942 L 340.05906559472123 274.0679192541354" stroke-opacity="0.8" stroke-linecap="round" stroke-linejoin="round" stroke-miterlimit="10" stroke-width="2.5"/><path fill="none" stroke="rgb(21,101,192)" paint-order="fill stroke markers" d=" M 340.05906559472123 274.0679192541354 L 533.07419948538 274.0679192541354" stroke-opacity="0.8" stroke-linecap="round" stroke-linejoin="round" stroke-miterlimit="10" stroke-width="2.5"/><path fill="none" stroke="rgb(21,101,192)" paint-order="fill stroke markers" d=" M 533.07419948538 274.0679192541354 L 533.07419948538 467.0830531447942" stroke-opacity="0.8" stroke-linecap="round" stroke-linejoin="round" stroke-miterlimit="10" stroke-width="2.5"/><path fill="none" stroke="rgb(21,101,192)" paint-order="fill stroke markers" d=" M 533.07419948538 467.0830531447942 L 340.05906559472123 467.0830531447942" stroke-opacity="0.8" stroke-linecap="round" stroke-linejoin="round" stroke-miterlimit="10" stroke-width="2.5"/><path fill="rgb(97,97,97)" stroke="none" paint-order="stroke fill markers" d=" M 344.05906559472123 467.0830531447942 C 344.05906559472123 469.29219214411734 342.2682045940444 471.0830531447942 340.05906559472123 471.0830531447942 C 337.8499265953981 471.0830531447942 336.05906559472123 469.29219214411734 336.05906559472123 467.0830531447942 C 336.05906559472123 464.873914145471 337.8499265953981 463.0830531447942 340.05906559472123 463.0830531447942 C 342.2682045940444 463.0830531447942 344.05906559472123 464.873914145471 344.05906559472123 467.0830531447942 Z" fill-opacity="1"/><path fill="none" stroke="rgb(0,0,0)" paint-order="fill stroke markers" d=" M 344.05906559472123 467.0830531447942 C 344.05906559472123 469.29219214411734 342.2682045940444 471.0830531447942 340.05906559472123 471.0830531447942 C 337.8499265953981 471.0830531447942 336.05906559472123 469.29219214411734 336.05906559472123 467.0830531447942 C 336.05906559472123 464.873914145471 337.8499265953981 463.0830531447942 340.05906559472123 463.0830531447942 C 342.2682045940444 463.0830531447942 344.05906559472123 464.873914145471 344.05906559472123 467.0830531447942 Z" stroke-opacity="1" stroke-linecap="round" stroke-linejoin="round" stroke-miterlimit="10"/><text fill="rgb(97,97,97)" stroke="none" font-family="geogebra-sans-serif, sans-serif" font-size="16px" font-style="normal" font-weight="normal" text-decoration="normal" x="344" y="459" text-anchor="start" dominant-baseline="alphabetic" fill-opacity="1">A</text><text fill="none" stroke="rgb(255,255,255)" font-family="geogebra-sans-serif, sans-serif" font-size="16px" font-style="normal" font-weight="normal" text-decoration="normal" x="344" y="459" text-anchor="start" dominant-baseline="alphabetic" stroke-opacity="1" stroke-linejoin="bevel" stroke-miterlimit="10" stroke-width="3">A</text><text fill="rgb(97,97,97)" stroke="none" font-family="geogebra-sans-serif, sans-serif" font-size="16px" font-style="normal" font-weight="normal" text-decoration="normal" x="344" y="459" text-anchor="start" dominant-baseline="alphabetic" fill-opacity="1">A</text><path fill="rgb(21,101,192)" stroke="none" paint-order="stroke fill markers" d=" M 345.05906559472123 274.0679192541354 C 345.05906559472123 276.82934300328935 342.8204893438752 279.0679192541354 340.05906559472123 279.0679192541354 C 337.2976418455673 279.0679192541354 335.05906559472123 276.82934300328935 335.05906559472123 274.0679192541354 C 335.05906559472123 271.30649550498146 337.2976418455673 269.0679192541354 340.05906559472123 269.0679192541354 C 342.8204893438752 269.0679192541354 345.05906559472123 271.30649550498146 345.05906559472123 274.0679192541354 Z" fill-opacity="1"/><path fill="none" stroke="rgb(0,0,0)" paint-order="fill stroke markers" d=" M 345.05906559472123 274.0679192541354 C 345.05906559472123 276.82934300328935 342.8204893438752 279.0679192541354 340.05906559472123 279.0679192541354 C 337.2976418455673 279.0679192541354 335.05906559472123 276.82934300328935 335.05906559472123 274.0679192541354 C 335.05906559472123 271.30649550498146 337.2976418455673 269.0679192541354 340.05906559472123 269.0679192541354 C 342.8204893438752 269.0679192541354 345.05906559472123 271.30649550498146 345.05906559472123 274.0679192541354 Z" stroke-opacity="1" stroke-linecap="round" stroke-linejoin="round" stroke-miterlimit="10"/><text fill="rgb(21,101,192)" stroke="none" font-family="geogebra-sans-serif, sans-serif" font-size="16px" font-style="normal" font-weight="normal" text-decoration="normal" x="344" y="264" text-anchor="start" dominant-baseline="alphabetic" fill-opacity="1">B</text><text fill="none" stroke="rgb(255,255,255)" font-family="geogebra-sans-serif, sans-serif" font-size="16px" font-style="normal" font-weight="normal" text-decoration="normal" x="344" y="264" text-anchor="start" dominant-baseline="alphabetic" stroke-opacity="1" stroke-linejoin="bevel" stroke-miterlimit="10" stroke-width="3">B</text><text fill="rgb(21,101,192)" stroke="none" font-family="geogebra-sans-serif, sans-serif" font-size="16px" font-style="normal" font-weight="normal" text-decoration="normal" x="344" y="264" text-anchor="start" dominant-baseline="alphabetic" fill-opacity="1">B</text><path fill="rgb(21,101,192)" stroke="none" paint-order="stroke fill markers" d=" M 345.05906559472123 434.9138641630177 C 345.05906559472123 437.67528791217165 342.8204893438752 439.9138641630177 340.05906559472123 439.9138641630177 C 337.2976418455673 439.9138641630177 335.05906559472123 437.67528791217165 335.05906559472123 434.9138641630177 C 335.05906559472123 432.15244041386376 337.2976418455673 429.9138641630177 340.05906559472123 429.9138641630177 C 342.8204893438752 429.9138641630177 345.05906559472123 432.15244041386376 345.05906559472123 434.9138641630177 Z" fill-opacity="1"/><path fill="none" stroke="rgb(0,0,0)" paint-order="fill stroke markers" d=" M 345.05906559472123 434.9138641630177 C 345.05906559472123 437.67528791217165 342.8204893438752 439.9138641630177 340.05906559472123 439.9138641630177 C 337.2976418455673 439.9138641630177 335.05906559472123 437.67528791217165 335.05906559472123 434.9138641630177 C 335.05906559472123 432.15244041386376 337.2976418455673 429.9138641630177 340.05906559472123 429.9138641630177 C 342.8204893438752 429.9138641630177 345.05906559472123 432.15244041386376 345.05906559472123 434.9138641630177 Z" stroke-opacity="1" stroke-linecap="round" stroke-linejoin="round" stroke-miterlimit="10"/><text fill="rgb(21,101,192)" stroke="none" font-family="geogebra-sans-serif, sans-serif" font-size="16px" font-style="normal" font-weight="normal" text-decoration="normal" x="344" y="425" text-anchor="start" dominant-baseline="alphabetic" fill-opacity="1">E</text><text fill="none" stroke="rgb(255,255,255)" font-family="geogebra-sans-serif, sans-serif" font-size="16px" font-style="normal" font-weight="normal" text-decoration="normal" x="344" y="425" text-anchor="start" dominant-baseline="alphabetic" stroke-opacity="1" stroke-linejoin="bevel" stroke-miterlimit="10" stroke-width="3">E</text><text fill="rgb(21,101,192)" stroke="none" font-family="geogebra-sans-serif, sans-serif" font-size="16px" font-style="normal" font-weight="normal" text-decoration="normal" x="344" y="425" text-anchor="start" dominant-baseline="alphabetic" fill-opacity="1">E</text><path fill="rgb(21,101,192)" stroke="none" paint-order="stroke fill markers" d=" M 377.2282545764977 274.0679192541354 C 377.2282545764977 276.82934300328935 374.98967832565165 279.0679192541354 372.2282545764977 279.0679192541354 C 369.46683082734376 279.0679192541354 367.2282545764977 276.82934300328935 367.2282545764977 274.0679192541354 C 367.2282545764977 271.30649550498146 369.46683082734376 269.0679192541354 372.2282545764977 269.0679192541354 C 374.98967832565165 269.0679192541354 377.2282545764977 271.30649550498146 377.2282545764977 274.0679192541354 Z" fill-opacity="1"/><path fill="none" stroke="rgb(0,0,0)" paint-order="fill stroke markers" d=" M 377.2282545764977 274.0679192541354 C 377.2282545764977 276.82934300328935 374.98967832565165 279.0679192541354 372.2282545764977 279.0679192541354 C 369.46683082734376 279.0679192541354 367.2282545764977 276.82934300328935 367.2282545764977 274.0679192541354 C 367.2282545764977 271.30649550498146 369.46683082734376 269.0679192541354 372.2282545764977 269.0679192541354 C 374.98967832565165 269.0679192541354 377.2282545764977 271.30649550498146 377.2282545764977 274.0679192541354 Z" stroke-opacity="1" stroke-linecap="round" stroke-linejoin="round" stroke-miterlimit="10"/><text fill="rgb(21,101,192)" stroke="none" font-family="geogebra-sans-serif, sans-serif" font-size="16px" font-style="normal" font-weight="normal" text-decoration="normal" x="376" y="264" text-anchor="start" dominant-baseline="alphabetic" fill-opacity="1">F</text><text fill="none" stroke="rgb(255,255,255)" font-family="geogebra-sans-serif, sans-serif" font-size="16px" font-style="normal" font-weight="normal" text-decoration="normal" x="376" y="264" text-anchor="start" dominant-baseline="alphabetic" stroke-opacity="1" stroke-linejoin="bevel" stroke-miterlimit="10" stroke-width="3">F</text><text fill="rgb(21,101,192)" stroke="none" font-family="geogebra-sans-serif, sans-serif" font-size="16px" font-style="normal" font-weight="normal" text-decoration="normal" x="376" y="264" text-anchor="start" dominant-baseline="alphabetic" fill-opacity="1">F</text><path fill="rgb(97,97,97)" stroke="none" paint-order="stroke fill markers" d=" M 842.6814948122562 450.99845865390597 C 842.6814948122562 453.20759765322913 840.8906338115794 454.99845865390597 838.6814948122562 454.99845865390597 C 836.4723558129331 454.99845865390597 834.6814948122562 453.20759765322913 834.6814948122562 450.99845865390597 C 834.6814948122562 448.7893196545828 836.4723558129331 446.99845865390597 838.6814948122562 446.99845865390597 C 840.8906338115794 446.99845865390597 842.6814948122562 448.7893196545828 842.6814948122562 450.99845865390597 Z" fill-opacity="1"/><path fill="none" stroke="rgb(0,0,0)" paint-order="fill stroke markers" d=" M 842.6814948122562 450.99845865390597 C 842.6814948122562 453.20759765322913 840.8906338115794 454.99845865390597 838.6814948122562 454.99845865390597 C 836.4723558129331 454.99845865390597 834.6814948122562 453.20759765322913 834.6814948122562 450.99845865390597 C 834.6814948122562 448.7893196545828 836.4723558129331 446.99845865390597 838.6814948122562 446.99845865390597 C 840.8906338115794 446.99845865390597 842.6814948122562 448.7893196545828 842.6814948122562 450.99845865390597 Z" stroke-opacity="1" stroke-linecap="round" stroke-linejoin="round" stroke-miterlimit="10"/><text fill="rgb(97,97,97)" stroke="none" font-family="geogebra-sans-serif, sans-serif" font-size="16px" font-style="normal" font-weight="normal" text-decoration="normal" x="843" y="443" text-anchor="start" dominant-baseline="alphabetic" fill-opacity="1">G</text><text fill="none" stroke="rgb(255,255,255)" font-family="geogebra-sans-serif, sans-serif" font-size="16px" font-style="normal" font-weight="normal" text-decoration="normal" x="843" y="443" text-anchor="start" dominant-baseline="alphabetic" stroke-opacity="1" stroke-linejoin="bevel" stroke-miterlimit="10" stroke-width="3">G</text><text fill="rgb(97,97,97)" stroke="none" font-family="geogebra-sans-serif, sans-serif" font-size="16px" font-style="normal" font-weight="normal" text-decoration="normal" x="843" y="443" text-anchor="start" dominant-baseline="alphabetic" fill-opacity="1">G</text></g></g></svg>